<?xml version="1.0" encoding="UTF-8" standalone="no"?>
<!-- Created with Inkscape (http://www.inkscape.org/) -->
<svg
   xmlns:svg="http://www.w3.org/2000/svg"
   xmlns="http://www.w3.org/2000/svg"
   version="1.0"
   width="887.69"
   height="147.12"
   id="svg2">
  <defs
     id="defs4">
    <clipPath
       id="clipPath2526">
      <path
         d="M 44.901,658.723 L 18.992,658.723 L 18.992,817.914 L 44.901,817.914 L 44.901,658.723 z"
         id="path2528" />
    </clipPath>
    <clipPath
       id="clipPath2506">
      <path
         d="M 44.901,658.723 L 18.992,658.723 L 18.992,817.914 L 44.901,817.914 L 44.901,658.723 z"
         id="path2508" />
    </clipPath>
    <clipPath
       id="clipPath2458">
      <path
         d="M 0,840.417 L 589.354,840.417 L 589.354,432.403 L 0,432.403 L 0,840.417 z"
         id="path2460" />
    </clipPath>
  </defs>
  <g
     transform="translate(-0.2993827,1.3929995)"
     id="layer1">
    <g
       transform="matrix(4.4535393,0,0,4.4535393,-417.30043,-424.17855)"
       id="g3034">
      <path
         d="M 141.44742,106.93281 L 142.15617,106.93281 C 142.49617,106.93281 143.77367,106.93281 143.77367,105.54781 C 143.77367,104.60656 143.24992,104.12906 142.41867,104.12906 L 141.44742,104.12906 L 141.44742,106.93281 z M 141.44742,102.37406 L 142.06367,102.37406 C 143.51117,102.37406 143.55742,101.24781 143.55742,101.04781 C 143.55742,100.66281 143.34242,99.754058 142.10992,99.754058 L 141.44742,99.754058 L 141.44742,102.37406 z M 139.01367,97.997808 L 143.01867,97.997808 C 145.28367,97.997808 145.99242,99.522808 145.99242,100.67781 C 145.99242,102.38906 144.66742,103.06531 144.05117,103.14281 L 144.05117,103.17406 C 145.26867,103.42031 146.20742,104.08281 146.20742,105.77656 C 146.20742,108.50406 143.51117,108.75031 142.87992,108.75031 L 139.01367,108.75031"
         id="path2472"
         style="fill:#1a1817;fill-opacity:1;fill-rule:nonzero;stroke:none" />
      <path
         d="M 157.90492,97.997808 L 164.11367,97.997808 L 164.11367,99.876558 L 160.33867,99.876558 L 160.33867,102.28156 L 163.92867,102.28156 L 163.92867,104.16031 L 160.33867,104.16031 L 160.33867,106.87281 L 164.29867,106.87281 L 164.29867,108.75031 L 157.90492,108.75031"
         id="path2476"
         style="fill:#1a1817;fill-opacity:1;fill-rule:nonzero;stroke:none" />
      <path
         d="M 175.59867,97.997808 L 178.12367,97.997808 L 178.12367,102.43406 L 178.15492,102.43406 L 180.80492,97.997808 L 183.63992,97.997808 L 180.31117,103.03531 L 183.90117,108.75031 L 180.88242,108.75031 L 178.15492,103.82031 L 178.12367,103.82031 L 178.12367,108.75031 L 175.59867,108.75031"
         id="path2480"
         style="fill:#1a1817;fill-opacity:1;fill-rule:nonzero;stroke:none" />
      <path
         d="M 197.22492,106.93281 L 197.93242,106.93281 C 198.27242,106.93281 199.54992,106.93281 199.54992,105.54781 C 199.54992,104.60656 199.02617,104.12906 198.19492,104.12906 L 197.22492,104.12906 L 197.22492,106.93281 z M 197.22492,102.37406 L 197.84117,102.37406 C 199.28867,102.37406 199.33367,101.24781 199.33367,101.04781 C 199.33367,100.66281 199.11867,99.754058 197.88742,99.754058 L 197.22492,99.754058 L 197.22492,102.37406 z M 194.78992,97.997808 L 198.79492,97.997808 C 201.06117,97.997808 201.76742,99.522808 201.76742,100.67781 C 201.76742,102.38906 200.44492,103.06531 199.82867,103.14281 L 199.82867,103.17406 C 201.04492,103.42031 201.98367,104.08281 201.98367,105.77656 C 201.98367,108.50406 199.28867,108.75031 198.65742,108.75031 L 194.78992,108.75031"
         id="path2484"
         style="fill:#1a1817;fill-opacity:1;fill-rule:nonzero;stroke:none" />
      <path
         d="M 230.80867,106.93281 L 231.51867,106.93281 C 231.85742,106.93281 233.13617,106.93281 233.13617,105.54781 C 233.13617,104.60656 232.61117,104.12906 231.78117,104.12906 L 230.80867,104.12906 L 230.80867,106.93281 z M 230.80867,102.37406 L 231.42492,102.37406 C 232.87367,102.37406 232.91992,101.24781 232.91992,101.04781 C 232.91992,100.66281 232.70367,99.754058 231.47242,99.754058 L 230.80867,99.754058 L 230.80867,102.37406 z M 228.37492,97.997808 L 232.37992,97.997808 C 234.64617,97.997808 235.35367,99.522808 235.35367,100.67781 C 235.35367,102.38906 234.02867,103.06531 233.41242,103.14281 L 233.41242,103.17406 C 234.62992,103.42031 235.56992,104.08281 235.56992,105.77656 C 235.56992,108.50406 232.87367,108.75031 232.24117,108.75031 L 228.37492,108.75031"
         id="path2488"
         style="fill:#1a1817;fill-opacity:1;fill-rule:nonzero;stroke:none" />
      <path
         d="M 254.50742,100.43156 C 254.12117,100.21531 253.47492,99.815308 252.31992,99.815308 C 250.62492,99.815308 249.54617,101.18656 249.54617,103.35906 C 249.54617,105.45406 250.76242,106.87281 252.36617,106.87281 C 253.59867,106.87281 254.32242,106.40906 254.56867,106.30156 L 254.66117,108.55031 C 254.22867,108.68906 253.33617,108.93531 251.96492,108.93531 C 249.02242,108.93531 246.95867,106.73281 246.95867,103.32906 C 246.95867,99.384058 249.60742,97.814058 251.79492,97.814058 C 253.39617,97.814058 254.21492,98.167808 254.63117,98.336558"
         id="path2492"
         style="fill:#1a1817;fill-opacity:1;fill-rule:nonzero;stroke:none" />
      <path
         d="M 267.99242,106.93281 L 268.70117,106.93281 C 269.04117,106.93281 270.31867,106.93281 270.31867,105.54781 C 270.31867,104.60656 269.79367,104.12906 268.96367,104.12906 L 267.99242,104.12906 L 267.99242,106.93281 z M 267.99242,102.37406 L 268.60867,102.37406 C 270.05617,102.37406 270.10242,101.24781 270.10242,101.04781 C 270.10242,100.66281 269.88742,99.754058 268.65492,99.754058 L 267.99242,99.754058 L 267.99242,102.37406 z M 265.55867,97.997808 L 269.56492,97.997808 C 271.82867,97.997808 272.53742,99.522808 272.53742,100.67781 C 272.53742,102.38906 271.21242,103.06531 270.59617,103.14281 L 270.59617,103.17406 C 271.81367,103.42031 272.75367,104.08281 272.75367,105.77656 C 272.75367,108.50406 270.05617,108.75031 269.42617,108.75031 L 265.55867,108.75031"
         id="path2496"
         style="fill:#1a1817;fill-opacity:1;fill-rule:nonzero;stroke:none" />
      <path
         d="M 284.45115,97.997808 L 290.66115,97.997808 L 290.66115,99.876558 L 286.88485,99.876558 L 286.88485,102.28156 L 290.47485,102.28156 L 290.47485,104.16031 L 286.88485,104.16031 L 286.88485,106.87281 L 290.84485,106.87281 L 290.84485,108.75031 L 284.45115,108.75031"
         id="path2500"
         style="fill:#1a1817;fill-opacity:1;fill-rule:nonzero;stroke:none" />
      <path
         d="M 214.76492,97.355308 L 214.76492,125.54406"
         id="path2512"
         style="fill:none;stroke:#1a1817;stroke-width:0.35374999;stroke-linecap:butt;stroke-linejoin:miter;stroke-miterlimit:3.86400008;stroke-dasharray:none;stroke-opacity:1" />
      <path
         d="M 122.40242,124.64406 C 122.45867,124.65031 122.47992,124.65031 122.40242,124.64406 C 122.55492,124.66281 122.58367,124.67406 122.70367,124.64406 C 122.60117,124.65656 122.58992,124.62656 122.70367,124.64406 C 122.57617,124.55406 122.57617,124.51906 122.70367,124.34531 L 122.70367,98.255308 C 122.56992,98.331558 122.56992,98.299058 122.70367,98.255308 C 122.58242,98.224058 122.59367,98.195308 122.70367,98.255308 C 122.57617,98.177808 122.54742,98.189058 122.40242,98.255308 C 122.47242,98.201558 122.43242,98.207808 122.40242,98.255308 L 96.614921,98.255308 C 96.579921,98.207808 96.546171,98.207808 96.614921,98.255308 C 96.471171,98.195308 96.442421,98.184058 96.313671,98.255308 C 96.424921,98.201558 96.437421,98.230308 96.313671,98.255308 C 96.449921,98.304058 96.449921,98.337808 96.313671,98.255308 L 96.313671,124.34531 C 96.448671,124.52406 96.447421,124.55781 96.313671,124.64406 C 96.434921,124.63156 96.423671,124.66031 96.313671,124.64406 C 96.441171,124.67781 96.471171,124.66531 96.614921,124.64406 C 96.544921,124.65406 96.578671,124.65406 96.614921,124.64406"
         id="path2516"
         style="fill:#ffffff;fill-opacity:1;fill-rule:nonzero;stroke:none" />
      <path
         d="M 116.10492,104.55281 C 116.19992,104.61406 116.20367,104.60906 116.10492,104.55281 C 116.24867,104.54656 116.28992,104.50531 116.40492,104.55281 C 116.27742,104.48281 116.21992,104.50531 116.10492,104.55281 C 116.14492,104.51031 116.11242,104.50906 116.10492,104.55281 L 107.40867,104.55281 C 107.41742,104.51156 107.39242,104.52281 107.40867,104.55281 C 107.32242,104.49156 107.29742,104.47281 107.40867,104.55281 C 107.27492,104.48531 107.27867,104.51656 107.40867,104.55281 C 107.27117,104.59281 107.24617,104.60406 107.10992,104.55281 L 102.91117,111.15031 C 102.82867,111.30656 102.79992,111.35406 102.61117,111.45156 C 102.73742,111.39781 102.70867,111.41156 102.61117,111.45156 C 102.70867,111.43656 102.73742,111.44906 102.61117,111.45156 C 102.79992,111.49406 102.82992,111.54406 102.91117,111.45156 L 107.10992,118.04781 C 107.24617,118.08281 107.27242,118.10281 107.40867,118.04781 C 107.28367,118.17781 107.28117,118.20906 107.40867,118.34656 C 107.30367,118.22031 107.32867,118.20156 107.40867,118.04781 C 107.39742,118.16656 107.41992,118.18281 107.40867,118.04781 L 116.10492,118.04781 C 116.09742,118.17531 116.13242,118.17406 116.10492,118.04781 C 116.20867,118.17781 116.26617,118.18906 116.40492,118.04781 C 116.27867,118.16656 116.23992,118.12656 116.10492,118.04781 C 116.19492,118.06781 116.16492,118.04281 116.10492,118.04781 L 111.90617,111.45156 C 111.75992,111.53281 111.73617,111.49406 111.60867,111.45156 C 111.67367,111.44906 111.64492,111.43656 111.60867,111.45156 C 111.64492,111.41156 111.67367,111.39781 111.60867,111.45156 C 111.73492,111.35406 111.76492,111.30656 111.90617,111.15031"
         id="path2520"
         style="fill:#1a1817;fill-opacity:1;fill-rule:evenodd;stroke:none" />
      <path
         d="M 102.01117,119.24781 L 117.00492,119.24781 C 117.05242,119.27781 117.08617,119.27906 117.00492,119.24781 C 117.16117,119.29281 117.19117,119.30281 117.30492,119.24781 C 117.20992,119.28531 117.19742,119.25531 117.30492,119.24781 C 117.18492,119.18031 117.18492,119.14656 117.30492,119.24781 L 117.30492,103.65281 C 117.18867,103.62531 117.18992,103.58906 117.30492,103.65281 C 117.20242,103.51406 117.21367,103.48531 117.30492,103.35281 C 117.19617,103.46656 117.16617,103.47906 117.00492,103.35281 C 117.09117,103.49156 117.03492,103.48906 117.00492,103.35281 L 102.01117,103.35281 C 101.96617,103.49281 101.93242,103.49156 102.01117,103.35281 C 101.85617,103.47906 101.82742,103.46906 101.71117,103.35281 C 101.80867,103.48531 101.82117,103.51531 101.71117,103.65281 C 101.83367,103.59031 101.83367,103.62531 101.71117,103.65281 L 101.71117,119.24781 C 101.83367,119.14781 101.83367,119.18281 101.71117,119.24781 C 101.82117,119.25781 101.80867,119.28781 101.71117,119.24781 C 101.82742,119.30656 101.85617,119.29406 102.01117,119.24781 C 101.93242,119.28156 101.94867,119.27656 102.01117,119.24781 M 122.70367,124.94406 C 122.72367,124.92031 122.74492,124.92031 122.70367,124.94406 C 122.82117,124.93281 122.85117,124.94406 123.00242,124.94406 C 122.86867,124.92656 122.85742,124.89656 122.70367,124.94406 C 122.84367,124.82156 122.84367,124.78656 122.70367,124.64406 L 122.70367,98.25531 C 122.83617,98.06531 122.83617,98.03031 122.70367,97.95531 C 122.84867,97.95531 122.86117,97.92531 123.00242,97.95531 C 122.84242,97.90781 122.81242,97.91906 122.70367,97.95531 C 122.73742,97.93156 122.69617,97.93781 122.70367,97.95531 L 96.31367,97.95531 C 96.31492,97.93781 96.28117,97.93781 96.31367,97.95531 C 96.20492,97.92531 96.17617,97.91406 96.01367,97.95531 C 96.15867,97.93156 96.16992,97.96031 96.31367,97.95531 C 96.18242,98.03656 96.18242,98.07031 96.31367,98.25531 L 96.31367,124.64406 C 96.18117,124.79156 96.18117,124.82531 96.31367,124.94406 C 96.16867,124.90156 96.15617,124.93031 96.01367,124.94406 C 96.17492,124.94781 96.20492,124.93656 96.31367,124.94406 C 96.27992,124.92406 96.31367,124.92406 96.31367,124.94406"
         id="path2532"
         style="fill:#dc002c;fill-opacity:1;fill-rule:evenodd;stroke:none" />
    </g>
  </g>
</svg>
